<svg xmlns="http://www.w3.org/2000/svg" fill="currentColor" viewBox="0 0 24 24"><path fill-opacity=".85" d="M10.366.705v4.502c0 .697.473.885 1.012.507l3.14-2.2c.45-.321.46-.785 0-1.117L11.388.2c-.549-.39-1.022-.202-1.022.505M3.644 11.994a8.346 8.346 0 0 1 8.35-8.359.833.833 0 0 0 .011-1.665C6.456 1.98 1.971 6.455 1.971 11.994a10.03 10.03 0 0 0 3.331 7.463c.447.402 1.022.265 1.287-.107.226-.321.25-.74-.185-1.154a8.3 8.3 0 0 1-2.76-6.202m9.99 11.288v-4.501c0-.697-.484-.885-1.014-.507l-3.138 2.2c-.45.32-.46.784 0 1.116l3.127 2.197c.541.391 1.025.203 1.025-.505m6.72-11.288a8.353 8.353 0 0 1-8.36 8.359.84.84 0 0 0-.832.832c0 .461.374.822.822.833 5.56-.011 10.045-4.485 10.045-10.024a10.03 10.03 0 0 0-3.331-7.463c-.447-.403-1.023-.265-1.288.106-.225.322-.25.741.186 1.154a8.35 8.35 0 0 1 2.758 6.203"/></svg>